<mxfile host="app.diagrams.net" modified="2023-04-19T08:26:36.073Z" agent="Mozilla/5.0 (Macintosh; Intel Mac OS X 10_15_7) AppleWebKit/605.1.15 (KHTML, like Gecko) Version/16.3 Safari/605.1.15" etag="LKX7cTAxIHZp8Wy_sOMg" version="21.1.9" type="google">
  <diagram name="Seite-1" id="ryvr-sqQh7eFuIhfHRLn">
    <mxGraphModel grid="1" page="1" gridSize="10" guides="1" tooltips="1" connect="1" arrows="1" fold="1" pageScale="1" pageWidth="827" pageHeight="1169" math="0" shadow="0">
      <root>
        <mxCell id="0" />
        <mxCell id="1" parent="0" />
        <mxCell id="-WRu4L7y1sapClA_TCmU-2" value="" style="shape=cube;whiteSpace=wrap;html=1;boundedLbl=1;backgroundOutline=1;darkOpacity=0.05;darkOpacity2=0.1;" vertex="1" parent="1">
          <mxGeometry x="40" y="110" width="440" height="1050" as="geometry" />
        </mxCell>
        <mxCell id="-WRu4L7y1sapClA_TCmU-3" value="&amp;lt;&amp;lt; device &amp;gt;&amp;gt;&lt;br&gt;Server xx" style="text;html=1;align=center;verticalAlign=middle;resizable=0;points=[];autosize=1;strokeColor=none;fillColor=none;" vertex="1" parent="1">
          <mxGeometry x="215" y="140" width="90" height="40" as="geometry" />
        </mxCell>
        <mxCell id="-WRu4L7y1sapClA_TCmU-4" value="" style="shape=cube;whiteSpace=wrap;html=1;boundedLbl=1;backgroundOutline=1;darkOpacity=0.05;darkOpacity2=0.1;" vertex="1" parent="1">
          <mxGeometry x="80" y="190" width="370" height="950" as="geometry" />
        </mxCell>
        <mxCell id="-WRu4L7y1sapClA_TCmU-5" value="&amp;lt;&amp;lt; execution-environment &amp;gt;&amp;gt;&lt;br&gt;Debian 11" style="text;html=1;align=center;verticalAlign=middle;resizable=0;points=[];autosize=1;strokeColor=none;fillColor=none;" vertex="1" parent="1">
          <mxGeometry x="175" y="220" width="180" height="40" as="geometry" />
        </mxCell>
        <mxCell id="-WRu4L7y1sapClA_TCmU-7" value="" style="shape=cube;whiteSpace=wrap;html=1;boundedLbl=1;backgroundOutline=1;darkOpacity=0.05;darkOpacity2=0.1;" vertex="1" parent="1">
          <mxGeometry x="120" y="280" width="310" height="360" as="geometry" />
        </mxCell>
        <mxCell id="-WRu4L7y1sapClA_TCmU-8" value="&amp;lt;&amp;lt; execution-environment &amp;gt;&amp;gt;&lt;br&gt;Apache Web Server" style="text;html=1;align=center;verticalAlign=middle;resizable=0;points=[];autosize=1;strokeColor=none;fillColor=none;" vertex="1" parent="1">
          <mxGeometry x="185" y="310" width="180" height="40" as="geometry" />
        </mxCell>
        <mxCell id="-WRu4L7y1sapClA_TCmU-13" value="" style="shape=cube;whiteSpace=wrap;html=1;boundedLbl=1;backgroundOutline=1;darkOpacity=0.05;darkOpacity2=0.1;" vertex="1" parent="1">
          <mxGeometry x="155" y="355" width="255" height="265" as="geometry" />
        </mxCell>
        <mxCell id="-WRu4L7y1sapClA_TCmU-14" value="&amp;lt;&amp;lt; execution-environment &amp;gt;&amp;gt;&lt;br&gt;NodeJS" style="text;html=1;align=center;verticalAlign=middle;resizable=0;points=[];autosize=1;strokeColor=none;fillColor=none;" vertex="1" parent="1">
          <mxGeometry x="200" y="380" width="180" height="40" as="geometry" />
        </mxCell>
        <mxCell id="-WRu4L7y1sapClA_TCmU-15" value="" style="shape=cube;whiteSpace=wrap;html=1;boundedLbl=1;backgroundOutline=1;darkOpacity=0.05;darkOpacity2=0.1;" vertex="1" parent="1">
          <mxGeometry x="120" y="930" width="310" height="190" as="geometry" />
        </mxCell>
        <mxCell id="-WRu4L7y1sapClA_TCmU-16" value="&amp;lt;&amp;lt; execution-environment &amp;gt;&amp;gt;&lt;br&gt;Datenbank" style="text;html=1;align=center;verticalAlign=middle;resizable=0;points=[];autosize=1;strokeColor=none;fillColor=none;" vertex="1" parent="1">
          <mxGeometry x="193" y="970" width="180" height="40" as="geometry" />
        </mxCell>
        <mxCell id="-WRu4L7y1sapClA_TCmU-17" value="" style="shape=cube;whiteSpace=wrap;html=1;boundedLbl=1;backgroundOutline=1;darkOpacity=0.05;darkOpacity2=0.1;" vertex="1" parent="1">
          <mxGeometry x="154" y="1020" width="256" height="80" as="geometry" />
        </mxCell>
        <mxCell id="-WRu4L7y1sapClA_TCmU-18" value="&amp;lt;&amp;lt; artifact &amp;gt;&amp;gt;&lt;br&gt;H2" style="text;html=1;align=center;verticalAlign=middle;resizable=0;points=[];autosize=1;strokeColor=none;fillColor=none;" vertex="1" parent="1">
          <mxGeometry x="245" y="1050" width="90" height="40" as="geometry" />
        </mxCell>
        <mxCell id="-WRu4L7y1sapClA_TCmU-19" value="&lt;font style=&quot;font-size: 24px;&quot;&gt;Smart Home&lt;/font&gt;" style="text;html=1;align=center;verticalAlign=middle;resizable=0;points=[];autosize=1;strokeColor=none;fillColor=none;" vertex="1" parent="1">
          <mxGeometry x="180" y="20" width="160" height="40" as="geometry" />
        </mxCell>
        <mxCell id="-WRu4L7y1sapClA_TCmU-20" value="" style="shape=cube;whiteSpace=wrap;html=1;boundedLbl=1;backgroundOutline=1;darkOpacity=0.05;darkOpacity2=0.1;" vertex="1" parent="1">
          <mxGeometry x="1180" y="110" width="440" height="940" as="geometry" />
        </mxCell>
        <mxCell id="-WRu4L7y1sapClA_TCmU-21" value="&amp;lt;&amp;lt; device &amp;gt;&amp;gt;&lt;br&gt;Server xx" style="text;html=1;align=center;verticalAlign=middle;resizable=0;points=[];autosize=1;strokeColor=none;fillColor=none;" vertex="1" parent="1">
          <mxGeometry x="1355" y="140" width="90" height="40" as="geometry" />
        </mxCell>
        <mxCell id="-WRu4L7y1sapClA_TCmU-22" value="" style="shape=cube;whiteSpace=wrap;html=1;boundedLbl=1;backgroundOutline=1;darkOpacity=0.05;darkOpacity2=0.1;" vertex="1" parent="1">
          <mxGeometry x="1220" y="190" width="370" height="840" as="geometry" />
        </mxCell>
        <mxCell id="-WRu4L7y1sapClA_TCmU-23" value="&amp;lt;&amp;lt; execution-environment &amp;gt;&amp;gt;&lt;br&gt;Debian 11" style="text;html=1;align=center;verticalAlign=middle;resizable=0;points=[];autosize=1;strokeColor=none;fillColor=none;" vertex="1" parent="1">
          <mxGeometry x="1315" y="220" width="180" height="40" as="geometry" />
        </mxCell>
        <mxCell id="-WRu4L7y1sapClA_TCmU-24" value="" style="shape=cube;whiteSpace=wrap;html=1;boundedLbl=1;backgroundOutline=1;darkOpacity=0.05;darkOpacity2=0.1;" vertex="1" parent="1">
          <mxGeometry x="1260" y="280" width="310" height="320" as="geometry" />
        </mxCell>
        <mxCell id="-WRu4L7y1sapClA_TCmU-25" value="&amp;lt;&amp;lt; execution-environment &amp;gt;&amp;gt;&lt;br&gt;JVM" style="text;html=1;align=center;verticalAlign=middle;resizable=0;points=[];autosize=1;strokeColor=none;fillColor=none;" vertex="1" parent="1">
          <mxGeometry x="1325" y="310" width="180" height="40" as="geometry" />
        </mxCell>
        <mxCell id="-WRu4L7y1sapClA_TCmU-26" value="" style="shape=cube;whiteSpace=wrap;html=1;boundedLbl=1;backgroundOutline=1;darkOpacity=0.05;darkOpacity2=0.1;" vertex="1" parent="1">
          <mxGeometry x="1295" y="355" width="255" height="225" as="geometry" />
        </mxCell>
        <mxCell id="-WRu4L7y1sapClA_TCmU-27" value="&amp;lt;&amp;lt; execution-environment &amp;gt;&amp;gt;&lt;br&gt;Spring Boot" style="text;html=1;align=center;verticalAlign=middle;resizable=0;points=[];autosize=1;strokeColor=none;fillColor=none;" vertex="1" parent="1">
          <mxGeometry x="1340" y="380" width="180" height="40" as="geometry" />
        </mxCell>
        <mxCell id="-WRu4L7y1sapClA_TCmU-28" value="" style="shape=cube;whiteSpace=wrap;html=1;boundedLbl=1;backgroundOutline=1;darkOpacity=0.05;darkOpacity2=0.1;" vertex="1" parent="1">
          <mxGeometry x="1260" y="630" width="310" height="190" as="geometry" />
        </mxCell>
        <mxCell id="-WRu4L7y1sapClA_TCmU-29" value="&amp;lt;&amp;lt; execution-environment &amp;gt;&amp;gt;&lt;br&gt;Datenbank" style="text;html=1;align=center;verticalAlign=middle;resizable=0;points=[];autosize=1;strokeColor=none;fillColor=none;" vertex="1" parent="1">
          <mxGeometry x="1332.5" y="660" width="180" height="40" as="geometry" />
        </mxCell>
        <mxCell id="-WRu4L7y1sapClA_TCmU-30" value="" style="shape=cube;whiteSpace=wrap;html=1;boundedLbl=1;backgroundOutline=1;darkOpacity=0.05;darkOpacity2=0.1;" vertex="1" parent="1">
          <mxGeometry x="1294" y="720" width="256" height="80" as="geometry" />
        </mxCell>
        <mxCell id="-WRu4L7y1sapClA_TCmU-31" value="&amp;lt;&amp;lt; artifact &amp;gt;&amp;gt;&lt;br&gt;MariaDB" style="text;html=1;align=center;verticalAlign=middle;resizable=0;points=[];autosize=1;strokeColor=none;fillColor=none;" vertex="1" parent="1">
          <mxGeometry x="1387.5" y="750" width="90" height="40" as="geometry" />
        </mxCell>
        <mxCell id="-WRu4L7y1sapClA_TCmU-32" value="&lt;font style=&quot;font-size: 24px;&quot;&gt;Smart Grid&lt;/font&gt;" style="text;html=1;align=center;verticalAlign=middle;resizable=0;points=[];autosize=1;strokeColor=none;fillColor=none;" vertex="1" parent="1">
          <mxGeometry x="1352" y="30" width="140" height="40" as="geometry" />
        </mxCell>
        <mxCell id="-WRu4L7y1sapClA_TCmU-33" value="" style="rounded=0;whiteSpace=wrap;html=1;" vertex="1" parent="1">
          <mxGeometry x="1332.5" y="437.5" width="75" height="32.5" as="geometry" />
        </mxCell>
        <mxCell id="-WRu4L7y1sapClA_TCmU-34" value="" style="rounded=0;whiteSpace=wrap;html=1;" vertex="1" parent="1">
          <mxGeometry x="1332.5" y="490" width="75" height="32.5" as="geometry" />
        </mxCell>
        <mxCell id="-WRu4L7y1sapClA_TCmU-35" value="" style="rounded=0;whiteSpace=wrap;html=1;" vertex="1" parent="1">
          <mxGeometry x="1450" y="437.5" width="75" height="32.5" as="geometry" />
        </mxCell>
        <mxCell id="-WRu4L7y1sapClA_TCmU-36" value="" style="rounded=0;whiteSpace=wrap;html=1;" vertex="1" parent="1">
          <mxGeometry x="1450" y="490" width="75" height="32.5" as="geometry" />
        </mxCell>
        <mxCell id="-WRu4L7y1sapClA_TCmU-37" value="" style="shape=cube;whiteSpace=wrap;html=1;boundedLbl=1;backgroundOutline=1;darkOpacity=0.05;darkOpacity2=0.1;" vertex="1" parent="1">
          <mxGeometry x="120" y="680" width="305" height="230" as="geometry" />
        </mxCell>
        <mxCell id="-WRu4L7y1sapClA_TCmU-38" value="&amp;lt;&amp;lt; execution-environment &amp;gt;&amp;gt;&lt;br&gt;JVM" style="text;html=1;align=center;verticalAlign=middle;resizable=0;points=[];autosize=1;strokeColor=none;fillColor=none;" vertex="1" parent="1">
          <mxGeometry x="200" y="715" width="180" height="40" as="geometry" />
        </mxCell>
        <mxCell id="-WRu4L7y1sapClA_TCmU-39" value="" style="shape=cube;whiteSpace=wrap;html=1;boundedLbl=1;backgroundOutline=1;darkOpacity=0.05;darkOpacity2=0.1;" vertex="1" parent="1">
          <mxGeometry x="154" y="770" width="256" height="120" as="geometry" />
        </mxCell>
        <mxCell id="-WRu4L7y1sapClA_TCmU-40" value="&amp;lt;&amp;lt; execution-environment &amp;gt;&amp;gt;&lt;br&gt;Spring Boot" style="text;html=1;align=center;verticalAlign=middle;resizable=0;points=[];autosize=1;strokeColor=none;fillColor=none;" vertex="1" parent="1">
          <mxGeometry x="202.5" y="800" width="180" height="40" as="geometry" />
        </mxCell>
        <mxCell id="-WRu4L7y1sapClA_TCmU-41" value="&lt;span style=&quot;font-size: 24px;&quot;&gt;MQTT Broker&lt;/span&gt;" style="text;html=1;align=center;verticalAlign=middle;resizable=0;points=[];autosize=1;strokeColor=none;fillColor=none;" vertex="1" parent="1">
          <mxGeometry x="740" y="437.5" width="170" height="40" as="geometry" />
        </mxCell>
        <mxCell id="-WRu4L7y1sapClA_TCmU-42" value="" style="shape=cube;whiteSpace=wrap;html=1;boundedLbl=1;backgroundOutline=1;darkOpacity=0.05;darkOpacity2=0.1;" vertex="1" parent="1">
          <mxGeometry x="620" y="490" width="410" height="300" as="geometry" />
        </mxCell>
        <mxCell id="-WRu4L7y1sapClA_TCmU-43" value="&amp;lt;&amp;lt; device &amp;gt;&amp;gt;" style="text;html=1;align=center;verticalAlign=middle;resizable=0;points=[];autosize=1;strokeColor=none;fillColor=none;" vertex="1" parent="1">
          <mxGeometry x="790" y="520" width="90" height="30" as="geometry" />
        </mxCell>
        <mxCell id="-WRu4L7y1sapClA_TCmU-44" value="" style="shape=cube;whiteSpace=wrap;html=1;boundedLbl=1;backgroundOutline=1;darkOpacity=0.05;darkOpacity2=0.1;" vertex="1" parent="1">
          <mxGeometry x="670" y="570" width="340" height="200" as="geometry" />
        </mxCell>
        <mxCell id="-WRu4L7y1sapClA_TCmU-46" value="&amp;lt;&amp;lt; execution environment &amp;gt;&amp;gt;&lt;br&gt;Debian 11" style="text;html=1;align=center;verticalAlign=middle;resizable=0;points=[];autosize=1;strokeColor=none;fillColor=none;" vertex="1" parent="1">
          <mxGeometry x="752.5" y="600" width="180" height="40" as="geometry" />
        </mxCell>
        <mxCell id="-WRu4L7y1sapClA_TCmU-47" value="" style="shape=cube;whiteSpace=wrap;html=1;boundedLbl=1;backgroundOutline=1;darkOpacity=0.05;darkOpacity2=0.1;" vertex="1" parent="1">
          <mxGeometry x="720" y="670" width="260" height="80" as="geometry" />
        </mxCell>
        <mxCell id="-WRu4L7y1sapClA_TCmU-48" value="&amp;lt;&amp;lt; message broker &amp;gt;&amp;gt;&lt;br&gt;Mosquitto: MQTT-Broker" style="text;html=1;align=center;verticalAlign=middle;resizable=0;points=[];autosize=1;strokeColor=none;fillColor=none;" vertex="1" parent="1">
          <mxGeometry x="785" y="700" width="150" height="40" as="geometry" />
        </mxCell>
        <mxCell id="-WRu4L7y1sapClA_TCmU-51" value="" style="endArrow=none;html=1;rounded=0;entryX=0;entryY=0;entryDx=0;entryDy=102.5;entryPerimeter=0;exitX=0;exitY=0;exitDx=260;exitDy=50;exitPerimeter=0;" edge="1" parent="1" source="-WRu4L7y1sapClA_TCmU-47" target="-WRu4L7y1sapClA_TCmU-26">
          <mxGeometry width="50" height="50" relative="1" as="geometry">
            <mxPoint x="1020" y="550" as="sourcePoint" />
            <mxPoint x="1070" y="500" as="targetPoint" />
          </mxGeometry>
        </mxCell>
        <mxCell id="-WRu4L7y1sapClA_TCmU-52" value="" style="endArrow=none;html=1;rounded=0;entryX=0;entryY=0;entryDx=256;entryDy=70;entryPerimeter=0;" edge="1" parent="1" source="-WRu4L7y1sapClA_TCmU-47" target="-WRu4L7y1sapClA_TCmU-39">
          <mxGeometry width="50" height="50" relative="1" as="geometry">
            <mxPoint x="750" y="550" as="sourcePoint" />
            <mxPoint x="800" y="500" as="targetPoint" />
          </mxGeometry>
        </mxCell>
        <mxCell id="-WRu4L7y1sapClA_TCmU-53" value="" style="shape=cube;whiteSpace=wrap;html=1;boundedLbl=1;backgroundOutline=1;darkOpacity=0.05;darkOpacity2=0.1;" vertex="1" parent="1">
          <mxGeometry x="850" y="970" width="310" height="100" as="geometry" />
        </mxCell>
        <mxCell id="-WRu4L7y1sapClA_TCmU-54" value="&amp;lt;&amp;lt; device &amp;gt;&amp;gt;&lt;br&gt;&lt;b&gt;Wetter-Station&lt;/b&gt;" style="text;html=1;align=center;verticalAlign=middle;resizable=0;points=[];autosize=1;strokeColor=none;fillColor=none;" vertex="1" parent="1">
          <mxGeometry x="950" y="1000" width="110" height="40" as="geometry" />
        </mxCell>
        <mxCell id="-WRu4L7y1sapClA_TCmU-55" value="" style="shape=cube;whiteSpace=wrap;html=1;boundedLbl=1;backgroundOutline=1;darkOpacity=0.05;darkOpacity2=0.1;" vertex="1" parent="1">
          <mxGeometry x="517" y="970" width="310" height="100" as="geometry" />
        </mxCell>
        <mxCell id="-WRu4L7y1sapClA_TCmU-56" value="&amp;lt;&amp;lt; device &amp;gt;&amp;gt;&lt;br&gt;&lt;b&gt;Zeit-Station&lt;/b&gt;" style="text;html=1;align=center;verticalAlign=middle;resizable=0;points=[];autosize=1;strokeColor=none;fillColor=none;" vertex="1" parent="1">
          <mxGeometry x="627" y="1000" width="90" height="40" as="geometry" />
        </mxCell>
        <mxCell id="-WRu4L7y1sapClA_TCmU-57" value="" style="endArrow=classic;html=1;rounded=0;exitX=0;exitY=0;exitDx=145;exitDy=0;exitPerimeter=0;entryX=0.3;entryY=1.05;entryDx=0;entryDy=0;entryPerimeter=0;" edge="1" parent="1" source="-WRu4L7y1sapClA_TCmU-55" target="-WRu4L7y1sapClA_TCmU-47">
          <mxGeometry width="50" height="50" relative="1" as="geometry">
            <mxPoint x="820" y="780" as="sourcePoint" />
            <mxPoint x="870" y="730" as="targetPoint" />
          </mxGeometry>
        </mxCell>
        <mxCell id="-WRu4L7y1sapClA_TCmU-58" value="" style="endArrow=classic;html=1;rounded=0;exitX=0;exitY=0;exitDx=145;exitDy=0;exitPerimeter=0;entryX=0.788;entryY=1.013;entryDx=0;entryDy=0;entryPerimeter=0;" edge="1" parent="1" source="-WRu4L7y1sapClA_TCmU-53" target="-WRu4L7y1sapClA_TCmU-47">
          <mxGeometry width="50" height="50" relative="1" as="geometry">
            <mxPoint x="820" y="780" as="sourcePoint" />
            <mxPoint x="870" y="730" as="targetPoint" />
          </mxGeometry>
        </mxCell>
        <mxCell id="qaaTqhLe1n3TZgxzp7vh-1" value="push" style="text;strokeColor=none;fillColor=none;align=left;verticalAlign=middle;spacingLeft=4;spacingRight=4;overflow=hidden;points=[[0,0.5],[1,0.5]];portConstraint=eastwest;rotatable=0;whiteSpace=wrap;html=1;" vertex="1" parent="1">
          <mxGeometry x="1090" y="550" width="80" height="60" as="geometry" />
        </mxCell>
        <mxCell id="qaaTqhLe1n3TZgxzp7vh-3" value="subscribe" style="text;strokeColor=none;fillColor=none;align=left;verticalAlign=middle;spacingLeft=4;spacingRight=4;overflow=hidden;points=[[0,0.5],[1,0.5]];portConstraint=eastwest;rotatable=0;whiteSpace=wrap;html=1;" vertex="1" parent="1">
          <mxGeometry x="1090" y="620" width="80" height="60" as="geometry" />
        </mxCell>
        <mxCell id="qaaTqhLe1n3TZgxzp7vh-4" value="push" style="text;strokeColor=none;fillColor=none;align=left;verticalAlign=middle;spacingLeft=4;spacingRight=4;overflow=hidden;points=[[0,0.5],[1,0.5]];portConstraint=eastwest;rotatable=0;whiteSpace=wrap;html=1;" vertex="1" parent="1">
          <mxGeometry x="965" y="830" width="80" height="60" as="geometry" />
        </mxCell>
        <mxCell id="qaaTqhLe1n3TZgxzp7vh-5" value="push" style="text;strokeColor=none;fillColor=none;align=left;verticalAlign=middle;spacingLeft=4;spacingRight=4;overflow=hidden;points=[[0,0.5],[1,0.5]];portConstraint=eastwest;rotatable=0;whiteSpace=wrap;html=1;" vertex="1" parent="1">
          <mxGeometry x="680" y="830" width="80" height="60" as="geometry" />
        </mxCell>
        <mxCell id="qaaTqhLe1n3TZgxzp7vh-6" value="push" style="text;strokeColor=none;fillColor=none;align=left;verticalAlign=middle;spacingLeft=4;spacingRight=4;overflow=hidden;points=[[0,0.5],[1,0.5]];portConstraint=eastwest;rotatable=0;whiteSpace=wrap;html=1;" vertex="1" parent="1">
          <mxGeometry x="530" y="740" width="80" height="60" as="geometry" />
        </mxCell>
        <mxCell id="qaaTqhLe1n3TZgxzp7vh-7" value="subscribe" style="text;strokeColor=none;fillColor=none;align=left;verticalAlign=middle;spacingLeft=4;spacingRight=4;overflow=hidden;points=[[0,0.5],[1,0.5]];portConstraint=eastwest;rotatable=0;whiteSpace=wrap;html=1;" vertex="1" parent="1">
          <mxGeometry x="530" y="790" width="80" height="60" as="geometry" />
        </mxCell>
        <mxCell id="qaaTqhLe1n3TZgxzp7vh-8" value="" style="shape=cube;whiteSpace=wrap;html=1;boundedLbl=1;backgroundOutline=1;darkOpacity=0.05;darkOpacity2=0.1;" vertex="1" parent="1">
          <mxGeometry x="190" y="430" width="200" height="180" as="geometry" />
        </mxCell>
        <mxCell id="qaaTqhLe1n3TZgxzp7vh-9" value="&amp;lt;&amp;lt; execution-environment &amp;gt;&amp;gt;&lt;br&gt;Angular" style="text;html=1;align=center;verticalAlign=middle;resizable=0;points=[];autosize=1;strokeColor=none;fillColor=none;" vertex="1" parent="1">
          <mxGeometry x="210" y="460" width="180" height="40" as="geometry" />
        </mxCell>
        <mxCell id="qaaTqhLe1n3TZgxzp7vh-10" value="&amp;lt;&amp;lt; artifact &amp;gt;&amp;gt;&lt;br&gt;......." style="rounded=0;whiteSpace=wrap;html=1;" vertex="1" parent="1">
          <mxGeometry x="190" y="840" width="100" height="40" as="geometry" />
        </mxCell>
        <mxCell id="qaaTqhLe1n3TZgxzp7vh-11" value="&amp;lt;&amp;lt; artifact &amp;gt;&amp;gt;&lt;br&gt;......." style="rounded=0;whiteSpace=wrap;html=1;" vertex="1" parent="1">
          <mxGeometry x="300" y="840" width="100" height="40" as="geometry" />
        </mxCell>
        <mxCell id="qaaTqhLe1n3TZgxzp7vh-12" value="&amp;lt;&amp;lt; artifact &amp;gt;&amp;gt;&lt;br&gt;......." style="rounded=0;whiteSpace=wrap;html=1;" vertex="1" parent="1">
          <mxGeometry x="250" y="510" width="100" height="40" as="geometry" />
        </mxCell>
        <mxCell id="qaaTqhLe1n3TZgxzp7vh-13" value="&amp;lt;&amp;lt; artifact &amp;gt;&amp;gt;&lt;br&gt;......." style="rounded=0;whiteSpace=wrap;html=1;" vertex="1" parent="1">
          <mxGeometry x="250" y="560" width="100" height="40" as="geometry" />
        </mxCell>
      </root>
    </mxGraphModel>
  </diagram>
</mxfile>
